<?xml version="1.0" encoding="UTF-8" standalone="no"?>
<!DOCTYPE svg PUBLIC "-//W3C//DTD SVG 20010904//EN"
              "http://www.w3.org/TR/2001/REC-SVG-20010904/DTD/svg10.dtd">

<svg xmlns="http://www.w3.org/2000/svg"
     width="2.40278in" height="2.40278in"
     viewBox="0 0 173 173">
  <path id="Selection"
        fill="none" stroke="black" stroke-width="1"
        d="M 74.00,79.20
           C 77.82,78.92 81.84,79.81 83.20,74.98
             83.66,73.50 83.29,71.52 83.20,70.00
             82.38,60.57 81.02,59.86 76.09,52.00
             71.03,43.95 66.58,34.49 67.30,24.83
             67.88,17.06 68.87,7.07 79.00,7.00
             79.00,7.00 74.00,12.00 74.00,12.00
             74.00,12.00 78.00,12.00 78.00,12.00
             75.74,13.05 73.37,13.94 72.02,16.21
             68.16,22.73 73.28,37.37 77.63,42.83
             79.66,45.38 82.33,47.21 85.00,49.00
             84.99,43.50 79.99,37.89 81.77,32.11
             83.06,27.88 89.54,26.49 92.11,33.02
             94.52,39.14 90.13,39.66 94.00,50.00
             94.00,50.00 96.00,50.00 96.00,50.00
             101.60,37.91 105.22,40.47 105.00,24.00
             104.96,21.62 105.00,19.25 103.83,17.09
             102.58,14.79 99.04,12.22 97.00,10.00
             97.00,10.00 101.00,12.00 101.00,12.00
             101.00,12.00 101.00,6.00 101.00,6.00
             102.78,8.24 105.18,10.51 106.43,13.04
             108.35,16.91 110.37,29.75 109.48,34.00
             109.48,34.00 102.46,53.00 102.46,53.00
             101.65,57.35 103.21,58.45 102.46,64.00
             102.46,64.00 99.97,78.27 99.97,78.27
             100.49,83.58 104.37,84.76 107.91,87.70
             110.44,89.80 115.02,95.97 116.12,99.09
             118.28,105.18 113.92,106.89 108.72,106.33
             107.11,106.40 104.15,105.69 102.72,106.33
             100.07,107.00 96.89,116.29 96.18,119.00
             93.27,130.09 92.76,145.54 93.49,157.00
             93.80,161.90 93.42,168.22 89.00,171.00
             88.99,168.15 89.15,164.77 88.12,162.09
             87.14,159.57 85.32,158.12 85.12,156.00
             84.87,153.27 87.33,151.82 87.61,147.99
             87.61,147.99 86.09,130.00 86.09,130.00
             86.45,120.63 84.74,124.51 78.42,118.67
             78.42,118.67 70.72,111.16 70.72,111.16
             70.72,111.16 62.00,104.69 62.00,104.69
             57.74,101.20 50.91,95.51 58.00,91.00
             58.00,91.00 54.00,84.00 54.00,84.00
             58.79,81.96 68.81,79.59 74.00,79.20 Z
           M 86.40,101.02
           C 84.26,99.31 73.09,99.00 70.00,99.00
             73.85,106.86 75.89,110.88 85.00,111.00
             85.00,111.00 87.00,118.00 87.00,118.00
             87.93,114.74 89.26,103.30 86.40,101.02 Z" />
</svg>
