<?xml version="1.0" encoding="UTF-8" standalone="no"?>
<!DOCTYPE svg PUBLIC "-//W3C//DTD SVG 20010904//EN"
              "http://www.w3.org/TR/2001/REC-SVG-20010904/DTD/svg10.dtd">

<svg xmlns="http://www.w3.org/2000/svg"
     width="3.27778in" height="2.29167in"
     viewBox="0 0 236 165">
  <path id="Selection"
        fill="none" stroke="black" stroke-width="1"
        d="M 66.21,63.06
           C 69.40,61.34 70.72,63.92 76.00,60.88
             76.00,60.88 92.00,49.57 92.00,49.57
             96.28,47.28 100.20,47.85 104.56,44.66
             104.56,44.66 113.04,36.64 113.04,36.64
             117.22,33.61 122.95,32.98 125.67,30.35
             128.57,27.57 126.92,25.19 127.38,22.00
             128.15,16.75 132.07,8.95 137.00,6.57
             146.56,1.96 157.39,11.11 157.00,21.00
             157.00,21.00 168.00,18.39 168.00,18.39
             177.84,17.54 184.80,24.00 183.89,34.00
             183.50,38.35 181.63,39.95 181.02,44.00
             180.52,47.27 181.67,51.77 182.51,55.00
             183.30,58.05 185.06,63.19 187.41,65.31
             189.89,67.53 193.76,67.84 195.40,72.04
             198.23,79.30 191.42,86.66 189.00,93.00
             196.06,91.32 208.08,96.22 215.00,98.69
             217.41,99.55 221.64,100.91 222.82,103.27
             224.27,105.89 222.25,109.19 222.82,115.00
             222.82,115.00 222.82,133.00 222.82,133.00
             213.51,132.96 212.76,130.89 208.42,130.89
             208.42,130.89 195.00,133.81 195.00,133.81
             191.81,134.08 186.27,133.30 183.80,131.15
             182.19,129.76 181.81,127.96 178.89,126.30
             178.89,126.30 153.17,117.37 153.17,117.37
             147.25,114.60 145.41,110.60 137.99,111.02
             130.63,111.43 126.04,114.83 121.05,120.01
             119.24,121.90 116.82,125.42 114.74,126.57
             112.17,128.00 107.94,127.92 105.00,128.28
             105.00,128.28 84.00,130.00 84.00,130.00
             84.84,133.10 85.84,136.32 87.70,138.98
             95.52,150.24 113.36,145.01 125.00,145.00
             124.10,147.16 123.73,148.46 121.66,149.86
             116.79,153.16 99.07,153.01 93.00,152.28
             89.62,151.88 86.05,152.28 83.10,150.26
             78.12,146.84 74.90,135.82 74.00,130.00
             74.00,130.00 57.00,131.00 57.00,131.00
             57.00,131.00 30.00,131.00 30.00,131.00
             27.90,131.00 25.13,130.87 23.17,131.58
             20.96,132.37 19.26,134.42 17.01,134.38
             13.22,134.30 12.91,130.84 13.00,128.00
             9.13,126.96 8.33,126.89 7.00,123.00
             7.00,123.00 3.00,123.00 3.00,123.00
             8.62,114.15 7.00,111.17 7.00,101.00
             11.22,100.44 14.52,100.72 17.00,97.00
             24.09,101.22 23.60,98.05 31.00,98.51
             38.02,98.95 45.08,99.68 52.00,98.00
             52.00,98.00 43.00,90.00 43.00,90.00
             43.00,90.00 55.65,75.00 55.65,75.00
             55.65,75.00 52.22,62.00 52.22,62.00
             52.22,62.00 41.00,31.00 41.00,31.00
             41.00,31.00 45.00,30.00 45.00,30.00
             45.00,30.00 60.00,72.00 60.00,72.00
             61.44,69.48 63.74,64.40 66.21,63.06 Z
           M 133.00,11.00
           C 133.00,11.00 134.00,12.00 134.00,12.00
             134.00,12.00 134.00,11.00 134.00,11.00
             134.00,11.00 133.00,11.00 133.00,11.00 Z
           M 155.00,16.00
           C 155.00,16.00 156.00,17.00 156.00,17.00
             156.00,17.00 156.00,16.00 156.00,16.00
             156.00,16.00 155.00,16.00 155.00,16.00 Z
           M 131.00,18.00
           C 131.00,18.00 132.00,19.00 132.00,19.00
             132.00,19.00 132.00,18.00 132.00,18.00
             132.00,18.00 131.00,18.00 131.00,18.00 Z
           M 176.00,20.00
           C 176.00,20.00 177.00,21.00 177.00,21.00
             177.00,21.00 177.00,20.00 177.00,20.00
             177.00,20.00 176.00,20.00 176.00,20.00 Z
           M 128.00,23.00
           C 131.40,28.09 141.82,26.55 146.00,23.00
             146.00,23.00 128.00,23.00 128.00,23.00 Z
           M 157.00,22.00
           C 157.00,22.00 158.00,23.00 158.00,23.00
             158.00,23.00 158.00,22.00 158.00,22.00
             158.00,22.00 157.00,22.00 157.00,22.00 Z
           M 177.00,23.00
           C 177.00,23.00 178.00,24.00 178.00,24.00
             178.00,24.00 178.00,23.00 178.00,23.00
             178.00,23.00 177.00,23.00 177.00,23.00 Z
           M 158.00,24.00
           C 158.00,24.00 159.00,25.00 159.00,25.00
             159.00,25.00 159.00,24.00 159.00,24.00
             159.00,24.00 158.00,24.00 158.00,24.00 Z
           M 179.00,24.00
           C 179.00,24.00 180.00,25.00 180.00,25.00
             180.00,25.00 180.00,24.00 180.00,24.00
             180.00,24.00 179.00,24.00 179.00,24.00 Z
           M 145.00,25.00
           C 145.00,25.00 143.00,33.00 143.00,33.00
             147.58,31.40 146.94,29.47 147.00,25.00
             147.00,25.00 145.00,25.00 145.00,25.00 Z
           M 159.00,25.00
           C 159.00,25.00 160.00,26.00 160.00,26.00
             160.00,26.00 160.00,25.00 160.00,25.00
             160.00,25.00 159.00,25.00 159.00,25.00 Z
           M 150.00,26.00
           C 150.00,26.00 151.00,27.00 151.00,27.00
             151.00,27.00 151.00,26.00 151.00,26.00
             151.00,26.00 150.00,26.00 150.00,26.00 Z
           M 180.00,26.00
           C 180.00,26.00 181.00,27.00 181.00,27.00
             181.00,27.00 181.00,26.00 181.00,26.00
             181.00,26.00 180.00,26.00 180.00,26.00 Z
           M 176.00,27.00
           C 176.00,27.00 177.00,28.00 177.00,28.00
             177.00,28.00 177.00,27.00 177.00,27.00
             177.00,27.00 176.00,27.00 176.00,27.00 Z
           M 155.00,28.00
           C 155.67,37.15 152.73,35.07 149.00,43.00
             145.55,42.27 145.04,42.00 143.00,45.00
             143.00,45.00 148.00,45.00 148.00,45.00
             148.00,45.00 151.00,50.00 151.00,50.00
             151.00,50.00 152.99,44.00 152.99,44.00
             156.64,36.73 159.77,38.45 158.00,28.00
             158.00,28.00 155.00,28.00 155.00,28.00 Z
           M 182.00,29.00
           C 182.00,29.00 183.00,30.00 183.00,30.00
             183.00,30.00 183.00,29.00 183.00,29.00
             183.00,29.00 182.00,29.00 182.00,29.00 Z
           M 42.00,32.00
           C 42.00,32.00 43.00,33.00 43.00,33.00
             43.00,33.00 43.00,32.00 43.00,32.00
             43.00,32.00 42.00,32.00 42.00,32.00 Z
           M 180.00,34.00
           C 180.00,34.00 181.00,35.00 181.00,35.00
             181.00,35.00 181.00,34.00 181.00,34.00
             181.00,34.00 180.00,34.00 180.00,34.00 Z
           M 177.00,35.00
           C 177.00,35.00 178.00,36.00 178.00,36.00
             178.00,36.00 178.00,35.00 178.00,35.00
             178.00,35.00 177.00,35.00 177.00,35.00 Z
           M 182.00,35.00
           C 182.00,35.00 183.00,36.00 183.00,36.00
             183.00,36.00 183.00,35.00 183.00,35.00
             183.00,35.00 182.00,35.00 182.00,35.00 Z
           M 179.00,36.00
           C 179.00,36.00 180.00,37.00 180.00,37.00
             180.00,37.00 180.00,36.00 180.00,36.00
             180.00,36.00 179.00,36.00 179.00,36.00 Z
           M 180.00,38.00
           C 180.00,38.00 181.00,39.00 181.00,39.00
             181.00,39.00 181.00,38.00 181.00,38.00
             181.00,38.00 180.00,38.00 180.00,38.00 Z
           M 142.00,46.00
           C 137.67,44.65 137.41,43.72 135.00,40.00
             132.68,43.69 136.87,50.55 142.00,46.00 Z
           M 148.00,40.00
           C 148.00,40.00 149.00,41.00 149.00,41.00
             149.00,41.00 149.00,40.00 149.00,40.00
             149.00,40.00 148.00,40.00 148.00,40.00 Z
           M 105.00,47.00
           C 105.00,47.00 106.00,48.00 106.00,48.00
             106.00,48.00 106.00,47.00 106.00,47.00
             106.00,47.00 105.00,47.00 105.00,47.00 Z
           M 176.00,51.00
           C 176.00,51.00 177.00,52.00 177.00,52.00
             177.00,52.00 177.00,51.00 177.00,51.00
             177.00,51.00 176.00,51.00 176.00,51.00 Z
           M 80.00,60.00
           C 80.00,60.00 81.00,61.00 81.00,61.00
             81.00,61.00 81.00,60.00 81.00,60.00
             81.00,60.00 80.00,60.00 80.00,60.00 Z
           M 67.00,63.00
           C 67.00,63.00 68.00,64.00 68.00,64.00
             68.00,64.00 68.00,63.00 68.00,63.00
             68.00,63.00 67.00,63.00 67.00,63.00 Z
           M 170.00,64.00
           C 170.00,64.00 171.00,65.00 171.00,65.00
             171.00,65.00 171.00,64.00 171.00,64.00
             171.00,64.00 170.00,64.00 170.00,64.00 Z
           M 169.00,65.00
           C 169.00,65.00 170.00,66.00 170.00,66.00
             170.00,66.00 170.00,65.00 170.00,65.00
             170.00,65.00 169.00,65.00 169.00,65.00 Z
           M 171.00,65.00
           C 171.00,65.00 172.00,66.00 172.00,66.00
             172.00,66.00 172.00,65.00 172.00,65.00
             172.00,65.00 171.00,65.00 171.00,65.00 Z
           M 77.00,67.00
           C 83.38,72.40 80.51,74.81 76.33,81.00
             71.48,88.19 65.33,94.35 58.00,99.00
             58.00,99.00 58.00,101.00 58.00,101.00
             64.41,102.30 66.73,98.26 71.00,94.00
             75.95,89.05 81.13,84.44 83.93,78.00
             85.70,74.78 86.73,71.42 83.93,68.70
             82.19,67.36 79.86,66.67 78.00,66.00
             78.00,66.00 77.00,67.00 77.00,67.00 Z
           M 165.00,73.22
           C 159.48,77.22 155.17,78.44 152.00,85.00
             152.00,85.00 161.00,79.47 161.00,79.47
             169.47,74.44 170.47,76.14 175.00,66.00
             170.31,68.21 168.97,70.34 165.00,73.22 Z
           M 97.00,76.65
           C 94.48,77.99 91.33,78.76 89.21,80.51
             86.96,82.36 85.32,85.63 83.47,88.00
             81.02,91.15 77.95,93.51 76.00,97.00
             76.00,97.00 91.00,95.26 91.00,95.26
             95.66,93.46 98.83,87.67 102.17,84.01
             108.08,77.56 113.36,76.51 117.00,68.00
             109.07,69.44 103.90,73.00 97.00,76.65 Z
           M 185.00,68.00
           C 185.00,68.00 186.00,69.00 186.00,69.00
             186.00,69.00 186.00,68.00 186.00,68.00
             186.00,68.00 185.00,68.00 185.00,68.00 Z
           M 122.00,70.00
           C 122.00,70.00 135.00,81.00 135.00,81.00
             133.63,75.47 128.43,68.46 122.00,70.00 Z
           M 184.00,69.00
           C 184.00,69.00 185.00,70.00 185.00,70.00
             185.00,70.00 185.00,69.00 185.00,69.00
             185.00,69.00 184.00,69.00 184.00,69.00 Z
           M 186.00,70.00
           C 186.00,70.00 187.00,71.00 187.00,71.00
             187.00,71.00 187.00,70.00 187.00,70.00
             187.00,70.00 186.00,70.00 186.00,70.00 Z
           M 190.00,70.00
           C 190.00,70.00 191.00,71.00 191.00,71.00
             191.00,71.00 191.00,70.00 191.00,70.00
             191.00,70.00 190.00,70.00 190.00,70.00 Z
           M 193.00,70.00
           C 193.00,70.00 194.00,71.00 194.00,71.00
             194.00,71.00 194.00,70.00 194.00,70.00
             194.00,70.00 193.00,70.00 193.00,70.00 Z
           M 142.00,91.00
           C 131.62,85.08 129.62,84.64 123.00,74.00
             120.53,83.14 134.13,92.42 142.00,91.00 Z
           M 173.00,74.00
           C 170.68,79.80 168.65,86.36 163.83,90.61
             160.31,93.71 156.61,94.06 153.00,97.00
             169.88,96.85 170.50,87.50 175.00,74.00
             175.00,74.00 173.00,74.00 173.00,74.00 Z
           M 168.00,77.00
           C 168.00,77.00 169.00,78.00 169.00,78.00
             169.00,78.00 169.00,77.00 169.00,77.00
             169.00,77.00 168.00,77.00 168.00,77.00 Z
           M 118.97,85.99
           C 125.38,94.36 136.66,103.50 148.00,99.00
             148.00,99.00 134.00,95.10 134.00,95.10
             134.00,95.10 115.00,79.00 115.00,79.00
             115.60,82.03 117.10,83.55 118.97,85.99 Z
           M 180.09,88.72
           C 185.64,94.00 191.50,98.71 196.00,105.00
             196.00,105.00 200.00,103.00 200.00,103.00
             200.00,103.00 175.00,79.00 175.00,79.00
             174.25,83.10 177.26,86.01 180.09,88.72 Z
           M 122.00,80.00
           C 122.00,80.00 123.00,81.00 123.00,81.00
             123.00,81.00 123.00,80.00 123.00,80.00
             123.00,80.00 122.00,80.00 122.00,80.00 Z
           M 132.00,81.00
           C 132.00,81.00 133.00,82.00 133.00,82.00
             133.00,82.00 133.00,81.00 133.00,81.00
             133.00,81.00 132.00,81.00 132.00,81.00 Z
           M 173.00,86.00
           C 173.00,86.00 174.00,87.00 174.00,87.00
             174.00,87.00 174.00,86.00 174.00,86.00
             174.00,86.00 173.00,86.00 173.00,86.00 Z
           M 175.00,86.00
           C 172.91,93.68 170.16,93.35 165.00,98.00
             172.77,98.36 176.48,93.27 177.00,86.00
             177.00,86.00 175.00,86.00 175.00,86.00 Z
           M 171.00,87.00
           C 171.00,87.00 172.00,88.00 172.00,88.00
             172.00,88.00 172.00,87.00 172.00,87.00
             172.00,87.00 171.00,87.00 171.00,87.00 Z
           M 186.00,89.00
           C 186.00,89.00 187.00,90.00 187.00,90.00
             187.00,90.00 187.00,89.00 187.00,89.00
             187.00,89.00 186.00,89.00 186.00,89.00 Z
           M 78.00,91.00
           C 78.00,91.00 79.00,92.00 79.00,92.00
             79.00,92.00 79.00,91.00 79.00,91.00
             79.00,91.00 78.00,91.00 78.00,91.00 Z
           M 118.99,101.00
           C 118.97,98.49 119.07,95.83 116.69,94.16
             113.95,92.59 109.13,93.75 106.00,94.16
             106.00,94.16 106.00,96.00 106.00,96.00
             106.00,96.00 116.00,96.00 116.00,96.00
             116.00,96.00 116.00,119.00 116.00,119.00
             116.00,119.00 118.00,119.00 118.00,119.00
             118.00,119.00 118.99,101.00 118.99,101.00 Z
           M 190.00,93.00
           C 190.00,93.00 191.00,94.00 191.00,94.00
             191.00,94.00 191.00,93.00 191.00,93.00
             191.00,93.00 190.00,93.00 190.00,93.00 Z
           M 97.00,94.00
           C 97.00,94.00 98.00,95.00 98.00,95.00
             98.00,95.00 98.00,94.00 98.00,94.00
             98.00,94.00 97.00,94.00 97.00,94.00 Z
           M 175.00,94.00
           C 175.00,94.00 176.00,95.00 176.00,95.00
             176.00,95.00 176.00,94.00 176.00,94.00
             176.00,94.00 175.00,94.00 175.00,94.00 Z
           M 192.00,94.00
           C 192.00,94.00 193.00,95.00 193.00,95.00
             193.00,95.00 193.00,94.00 193.00,94.00
             193.00,94.00 192.00,94.00 192.00,94.00 Z
           M 196.00,94.00
           C 196.00,94.00 197.00,95.00 197.00,95.00
             197.00,95.00 197.00,94.00 197.00,94.00
             197.00,94.00 196.00,94.00 196.00,94.00 Z
           M 188.00,98.00
           C 188.00,98.00 189.00,99.00 189.00,99.00
             189.00,99.00 189.00,98.00 189.00,98.00
             189.00,98.00 188.00,98.00 188.00,98.00 Z
           M 210.00,101.00
           C 210.00,101.00 211.00,102.00 211.00,102.00
             211.00,102.00 211.00,101.00 211.00,101.00
             211.00,101.00 210.00,101.00 210.00,101.00 Z
           M 221.04,112.00
           C 221.04,112.00 220.36,103.89 220.36,103.89
             220.36,103.89 210.00,103.00 210.00,103.00
             210.00,103.00 210.00,105.00 210.00,105.00
             210.00,105.00 217.40,106.60 217.40,106.60
             217.40,106.60 219.00,115.00 219.00,115.00
             219.00,115.00 220.00,130.00 220.00,130.00
             220.00,130.00 216.00,132.00 216.00,132.00
             216.00,132.00 222.00,132.00 222.00,132.00
             222.00,132.00 221.04,112.00 221.04,112.00 Z
           M 18.59,107.41
           C 18.59,107.41 20.00,123.00 20.00,123.00
             25.27,119.47 22.52,110.18 21.00,105.00
             21.00,105.00 18.59,107.41 18.59,107.41 Z
           M 26.00,122.00
           C 26.00,122.00 29.00,122.00 29.00,122.00
             29.00,116.38 29.52,109.69 26.00,105.00
             23.88,110.35 25.55,116.44 26.00,122.00 Z
           M 193.00,105.00
           C 193.00,105.00 194.00,106.00 194.00,106.00
             194.00,106.00 194.00,105.00 194.00,105.00
             194.00,105.00 193.00,105.00 193.00,105.00 Z
           M 191.21,109.11
           C 191.21,109.11 180.00,124.00 180.00,124.00
             188.54,121.48 192.02,113.85 195.00,106.00
             195.00,106.00 191.21,109.11 191.21,109.11 Z
           M 95.00,125.00
           C 95.00,125.00 94.00,107.00 94.00,107.00
             90.77,112.00 91.15,120.46 95.00,125.00 Z
           M 87.00,123.00
           C 88.40,118.08 88.40,113.92 87.00,109.00
             83.75,113.34 83.02,118.95 87.00,123.00 Z
           M 11.00,121.00
           C 11.00,121.00 14.00,121.00 14.00,121.00
             14.00,121.00 13.00,118.00 13.00,118.00
             13.00,118.00 11.00,121.00 11.00,121.00 Z
           M 187.00,123.00
           C 187.00,123.00 188.00,124.00 188.00,124.00
             188.00,124.00 188.00,123.00 188.00,123.00
             188.00,123.00 187.00,123.00 187.00,123.00 Z
           M 179.00,124.00
           C 179.00,124.00 180.00,125.00 180.00,125.00
             180.00,125.00 180.00,124.00 180.00,124.00
             180.00,124.00 179.00,124.00 179.00,124.00 Z
           M 191.00,129.20
           C 196.16,130.74 204.24,128.73 208.00,125.00
             197.89,125.90 194.92,127.81 185.00,124.00
             185.00,127.12 188.28,128.39 191.00,129.20 Z
           M 120.00,146.00
           C 120.00,146.00 121.00,147.00 121.00,147.00
             121.00,147.00 121.00,146.00 121.00,146.00
             121.00,146.00 120.00,146.00 120.00,146.00 Z
           M 121.00,147.00
           C 121.00,147.00 122.00,148.00 122.00,148.00
             122.00,148.00 122.00,147.00 122.00,147.00
             122.00,147.00 121.00,147.00 121.00,147.00 Z" />
</svg>
