<?xml version="1.0" encoding="UTF-8" standalone="no"?>
<!DOCTYPE svg PUBLIC "-//W3C//DTD SVG 20010904//EN"
              "http://www.w3.org/TR/2001/REC-SVG-20010904/DTD/svg10.dtd">

<svg xmlns="http://www.w3.org/2000/svg"
     width="1.81944in" height="2.36111in"
     viewBox="0 0 131 170">
  <path id="Selection"
        fill="none" stroke="black" stroke-width="1"
        d="M 28.00,31.39
           C 33.35,32.75 46.15,33.01 52.00,33.00
             54.11,33.00 57.04,33.12 59.00,32.40
             61.36,31.54 63.07,29.84 65.00,28.30
             73.15,21.82 72.30,23.31 77.58,14.00
             80.51,8.83 84.53,-0.72 92.00,0.91
             97.02,2.00 98.43,5.73 100.05,10.00
             100.05,10.00 105.25,26.00 105.25,26.00
             105.81,28.29 106.06,31.91 107.17,33.79
             108.98,36.83 112.02,37.19 115.82,41.10
             121.40,46.86 126.80,60.99 125.66,69.00
             124.47,77.36 119.40,85.37 113.00,90.67
             110.26,92.95 104.49,95.73 103.02,98.21
             101.60,100.63 102.03,106.10 101.87,109.00
             101.87,109.00 101.87,118.00 101.87,118.00
             102.11,127.47 103.27,137.67 101.00,147.00
             101.00,147.00 131.00,147.00 131.00,147.00
             131.00,147.00 131.00,170.00 131.00,170.00
             131.00,170.00 26.00,170.00 26.00,170.00
             26.00,170.00 26.00,147.00 26.00,147.00
             26.00,147.00 78.00,147.00 78.00,147.00
             82.08,146.93 91.91,145.12 94.39,141.77
             96.91,138.38 94.31,130.97 93.61,127.00
             91.88,117.09 95.10,110.77 91.00,95.00
             91.00,95.00 89.00,95.00 89.00,95.00
             85.03,106.76 84.63,102.41 75.00,102.00
             72.58,95.23 68.76,95.33 67.44,90.00
             66.13,84.69 69.73,80.84 71.16,77.00
             72.08,74.56 71.95,71.90 73.02,70.60
             74.04,69.36 75.54,69.22 77.00,69.65
             77.00,69.65 89.00,77.00 89.00,77.00
             89.00,77.00 97.99,70.79 97.99,70.79
             97.99,70.79 108.00,62.00 108.00,62.00
             101.29,56.95 101.54,59.11 97.04,56.70
             93.03,54.55 92.16,51.41 87.99,49.43
             84.47,47.76 80.70,48.25 77.00,47.70
             77.00,47.70 68.00,45.19 68.00,45.19
             68.00,45.19 52.00,45.19 52.00,45.19
             35.49,44.97 34.24,38.30 19.00,39.28
             17.67,39.48 16.54,39.65 15.24,39.28
             13.45,38.54 11.49,36.05 9.87,34.74
             5.80,31.46 3.80,31.35 0.00,27.00
             10.57,24.00 18.38,28.96 28.00,31.39 Z
           M 76.00,29.00
           C 76.00,29.00 76.00,31.00 76.00,31.00
             76.00,31.00 77.00,32.00 77.00,32.00
             77.00,32.00 90.00,31.00 90.00,31.00
             90.00,31.00 89.00,20.00 89.00,20.00
             89.00,20.00 76.00,29.00 76.00,29.00 Z" />
</svg>
